HIERARCHY
ROOT Hips
{
	OFFSET 0.00 0.00 0.00
	CHANNELS 6 Xposition Yposition Zposition Xrotation Yrotation Zrotation
	JOINT Spine
	{
		OFFSET 0.00000 9.31055 0.00000
		CHANNELS 3 Xrotation Yrotation Zrotation
		JOINT Head
		{
			OFFSET 0.00000 11.91750 0.00000
			CHANNELS 3 Xrotation Yrotation Zrotation
			End Site
			{
				OFFSET 0.00000 4.52755 0.00000
			}
		}
		JOINT LeftShoulder
		{
			OFFSET 0.00000 9.31055 0.00000
			CHANNELS 3 Xrotation Yrotation Zrotation
			JOINT LeftArm
			{
				OFFSET 5.58633 0.00000 0.00000
				CHANNELS 3 Xrotation Yrotation Zrotation
				JOINT LeftForeArm
				{
					OFFSET 11.17266 0.00000 0.00000
					CHANNELS 3 Zrotation Yrotation Xrotation
					JOINT LeftHand
					{
						OFFSET 10.24161 0.00000 0.00000
						CHANNELS 3 Xrotation Yrotation Zrotation
						JOINT LeftHandThumb1
						{
							OFFSET 0.00000 0.00000 0.00000
							CHANNELS 3 Xrotation Yrotation Zrotation
							End Site
							{
								OFFSET 0.00000 0.00000 3.93700
							}
						}
						End Site
						{
							OFFSET 3.93700 0.00000 0.00000
						}
					}
				}
			}
		}
		JOINT RightShoulder
		{
			OFFSET 0.00000 9.31055 0.00000
			CHANNELS 3 Xrotation Yrotation Zrotation
			JOINT RightArm
			{
				OFFSET -5.58633 0.00000 0.00000
				CHANNELS 3 Xrotation Yrotation Zrotation
				JOINT RightForeArm
				{
					OFFSET -11.17266 0.00000 0.00000
					CHANNELS 3 Zrotation Yrotation Xrotation
					JOINT RightHand
					{
						OFFSET -10.24161 0.00000 0.00000
						CHANNELS 3 Xrotation Yrotation Zrotation
						JOINT RightHandThumb1
						{
							OFFSET 0.00000 0.00000 0.00000
							CHANNELS 3 Xrotation Yrotation Zrotation
							End Site
							{
								OFFSET 0.00000 0.00000 3.93700
							}
						}
						End Site
						{
							OFFSET -3.93700 0.00000 0.00000
						}
					}
				}
			}
		}
	}
	JOINT LeftUpLeg
	{
		OFFSET 3.72422 0.00000 0.00000
		CHANNELS 3 Xrotation Yrotation Zrotation
		JOINT LeftLeg
		{
			OFFSET 0.00000 -18.62110 0.00000
			CHANNELS 3 Xrotation Yrotation Zrotation
			JOINT LeftFoot
			{
				OFFSET 0.00000 -17.13141 0.00000
				CHANNELS 3 Xrotation Yrotation Zrotation
				JOINT LeftToeBase
				{
					OFFSET 0.00000 -1.68682 6.29531
					CHANNELS 3 Xrotation Yrotation Zrotation
					End Site
					{
						OFFSET 0.00000 0.00000 2.95275
					}
				}
			}
		}
	}
	JOINT RightUpLeg
	{
		OFFSET -3.72422 0.00000 0.00000
		CHANNELS 3 Xrotation Yrotation Zrotation
		JOINT RightLeg
		{
			OFFSET 0.00000 -18.62110 0.00000
			CHANNELS 3 Xrotation Yrotation Zrotation
			JOINT RightFoot
			{
				OFFSET 0.00000 -17.13141 0.00000
				CHANNELS 3 Xrotation Yrotation Zrotation
				JOINT RightToeBase
				{
					OFFSET 0.00000 -1.68682 6.29531
					CHANNELS 3 Xrotation Yrotation Zrotation
					End Site
					{
						OFFSET 0.00000 0.00000 2.95275
					}
				}
			}
		}
	}
}
MOTION
Frames: 7
Frame Time: 0.008333
 2.2610 40.0844 3.9698 0.3048 -24.6887 -0.0532 4.1946 22.2715 -0.9172 9.9502 1.9920 1.8254 -4.8094 13.0565 5.2498 -29.0321 -0.5081 -9.3407 0.0000 -15.0190 34.7880 0.3336 3.2607 -5.8457 -0.0000 0.0000 -0.0000 -5.2175 -6.3411 -7.3572 -22.6162 0.0030 9.5905 -0.0000 16.3253 5.2389 -0.3930 7.1418 3.1582 -0.0000 0.0000 -0.0000 1.6194 45.0864 6.9055 7.2790 -0.0000 -0.0000 5.7353 -13.5649 -17.8315 -2.9031 -0.0000 0.0000 -4.2486 1.2214 -4.6995 11.0309 0.0000 -0.0000 6.4689 9.2535 16.2417 -2.4629 0.0000 0.0000
 2.2615 40.0828 3.9720 0.3006 -24.7026 -0.0515 4.2303 22.2773 -0.9345 10.1504 2.0465 1.7742 -4.8497 13.0768 5.2473 -29.0314 -0.5056 -9.3653 0.0000 -15.0238 34.7531 0.3320 3.2636 -5.8121 -0.0000 0.0000 -0.0000 -5.2303 -6.3629 -7.3711 -22.6473 0.0204 9.6154 0.0000 16.3633 5.2532 -0.3934 7.0839 3.1865 -0.0000 0.0000 -0.0000 1.6383 45.0990 6.8930 7.2733 0.0000 0.0000 5.7359 -13.5637 -17.8251 -2.9589 -0.0000 0.0000 -4.2496 1.2171 -4.7047 11.0408 0.0000 -0.0000 6.4620 9.2701 16.2378 -2.5422 0.0000 0.0000
 2.2606 40.0818 3.9738 0.3015 -24.7080 -0.0540 4.2646 22.2686 -0.9548 10.3600 2.0330 1.7209 -4.8810 13.1004 5.2377 -29.0716 -0.4983 -9.3760 0.0000 -15.0312 34.7280 0.3307 3.2584 -5.7982 -0.0000 0.0000 -0.0000 -5.2514 -6.3917 -7.3746 -22.6379 0.0563 9.6413 0.0000 16.3795 5.2090 -0.3948 7.1112 3.1858 -0.0000 0.0000 -0.0000 1.6468 45.0854 6.8912 7.2681 0.0000 0.0000 5.7156 -13.5421 -17.8486 -2.8814 0.0000 0.0000 -4.2463 1.2384 -4.7010 11.0404 0.0000 0.0000 6.4498 9.2567 16.2544 -2.5315 0.0000 -0.0000
 2.2596 40.0808 3.9746 0.3019 -24.7131 -0.0588 4.2982 22.2700 -0.9775 10.5964 1.9992 1.6902 -4.9113 13.1500 5.2426 -29.0478 -0.5337 -9.4197 0.0000 -15.0354 34.6283 0.3294 3.2287 -5.8281 -0.0000 0.0000 -0.0000 -5.2905 -6.4275 -7.3712 -22.6285 0.0968 9.6625 -0.0000 16.3932 5.2097 -0.3943 7.1050 3.1850 -0.0000 0.0000 -0.0000 1.6484 45.0869 6.8954 7.2618 -0.0000 -0.0000 5.7090 -13.5378 -17.8704 -2.8811 0.0000 0.0000 -4.2524 1.2146 -4.6957 11.0500 -0.0000 -0.0000 6.4508 9.2764 16.2335 -2.6474 0.0000 -0.0000
 2.2592 40.0791 3.9757 0.3014 -24.7207 -0.0615 4.3338 22.2647 -0.9972 10.8453 1.9820 1.6542 -4.9494 13.1846 5.2388 -29.0198 -0.5448 -9.4385 0.0000 -15.0460 34.5998 0.3283 3.2481 -5.7742 -0.0000 0.0000 -0.0000 -5.2976 -6.4605 -7.3723 -22.6309 0.1342 9.6838 0.0000 16.4284 5.2312 -0.3934 7.0996 3.1796 -0.0000 0.0000 -0.0000 1.6551 45.0938 6.8951 7.2565 -0.0000 0.0000 5.6978 -13.5330 -17.8853 -2.9113 -0.0000 -0.0000 -4.2566 1.2099 -4.6951 11.0597 0.0000 -0.0000 6.4292 9.2920 16.2440 -2.5412 0.0000 -0.0000
 2.2585 40.0774 3.9767 0.2987 -24.7288 -0.0652 4.3816 22.2575 -1.0220 11.1207 1.9276 1.6047 -5.0028 13.2343 5.2415 -28.9796 -0.5686 -9.4690 0.0000 -15.0594 34.5874 0.3305 3.2878 -5.7428 -0.0000 0.0000 -0.0000 -5.3243 -6.4995 -7.3762 -22.6387 0.1806 9.7118 0.0000 16.4549 5.1908 -0.3939 7.1088 3.1795 -0.0000 0.0000 -0.0000 1.6598 45.1148 6.8999 7.2514 -0.0000 -0.0000 5.6857 -13.5534 -17.8885 -2.8882 0.0000 0.0000 -4.2567 1.1993 -4.6940 11.0650 -0.0000 -0.0000 6.4123 9.3224 16.2320 -2.5203 0.0000 -0.0000
 2.2584 40.0755 3.9778 0.2948 -24.7405 -0.0683 4.4348 22.2541 -1.0483 11.4117 1.8180 1.5727 -5.0350 13.2875 5.2314 -28.9706 -0.5970 -9.4992 0.0000 -15.0633 34.5266 0.3283 3.2777 -5.7222 -0.0000 0.0000 -0.0000 -5.3720 -6.5363 -7.3866 -22.6279 0.2264 9.7434 -0.0000 16.4792 5.2161 -0.3973 7.1420 3.1922 -0.0000 0.0000 -0.0000 1.6784 45.1029 6.8899 7.2417 -0.0000 -0.0000 5.6708 -13.5213 -17.9104 -2.8504 -0.0000 -0.0000 -4.2564 1.2120 -4.6923 11.0702 0.0000 0.0000 6.4066 9.3185 16.2431 -2.5269 -0.0000 0.0000
